<?xml version="1.0" standalone="no"?>
<!DOCTYPE svg PUBLIC "-//W3C//DTD SVG 20010904//EN"
 "http://www.w3.org/TR/2001/REC-SVG-20010904/DTD/svg10.dtd">
<svg version="1.0" xmlns="http://www.w3.org/2000/svg"
 width="947.000000pt" height="947.000000pt" viewBox="0 0 947.000000 947.000000"
 preserveAspectRatio="xMidYMid meet">
<metadata>
Created by potrace 1.14, written by Peter Selinger 2001-2017
</metadata>
<g transform="translate(0.000000,947.000000) scale(0.100000,-0.100000)"
fill="#000000" stroke="none">
<path d="M3762 7509 c-18 -5 -30 -14 -27 -19 9 -15 20 -12 46 10 27 22 27 22
-19 9z"/>
<path d="M3629 7453 c-13 -15 -11 -16 16 -9 41 10 56 26 23 26 -14 0 -32 -7
-39 -17z"/>
<path d="M3405 7357 c-162 -83 -351 -204 -480 -305 -101 -80 -401 -383 -472
-477 -266 -354 -429 -685 -531 -1075 -65 -249 -67 -280 -25 -307 29 -18 53
-40 87 -80 18 -22 18 -24 1 -43 -15 -16 -17 -31 -13 -85 3 -37 2 -65 -4 -65
-16 0 -63 27 -159 93 -101 68 -319 201 -519 317 -169 98 -221 132 -318 213
-133 110 -213 222 -256 357 -28 87 -45 208 -25 175 7 -11 17 -23 22 -27 6 -3
15 -21 21 -40 10 -30 14 -33 45 -30 20 2 42 13 51 25 l17 21 12 -22 c13 -25
41 -30 41 -8 0 24 18 28 52 12 17 -9 33 -14 36 -12 4 5 -36 113 -50 132 -4 5
-23 58 -43 117 -33 101 -35 115 -35 240 0 122 13 225 40 312 56 180 94 262
150 325 26 29 41 70 25 70 -5 0 -107 -63 -147 -91 -15 -10 -32 -19 -37 -19
-16 0 -156 -130 -193 -181 -42 -56 0 -34 62 32 16 17 50 32 50 23 0 -3 -20
-43 -45 -88 -71 -131 -110 -251 -140 -439 -7 -42 -42 -72 -73 -63 -13 4 -22 1
-26 -9 -7 -18 -43 -20 -49 -2 -2 6 -2 41 1 76 3 41 1 62 -5 58 -10 -6 -24
-140 -29 -257 -1 -30 -7 -89 -13 -130 -13 -93 -14 -350 -2 -383 7 -18 4 -42
-10 -87 -10 -34 -19 -87 -19 -118 0 -78 33 -242 65 -327 16 -43 24 -82 22
-100 -8 -47 12 -174 36 -235 46 -117 130 -264 203 -355 17 -22 49 -74 69 -115
47 -93 97 -165 173 -244 76 -79 177 -169 214 -191 114 -65 278 -172 278 -181
0 -6 -9 -19 -19 -28 -11 -10 -39 -61 -62 -114 -45 -104 -80 -172 -90 -172 -3
0 -15 14 -27 30 -14 18 -32 30 -45 30 -13 0 -29 6 -36 12 -11 11 -14 10 -18
-1 -3 -7 -13 -21 -23 -31 -10 -10 -21 -32 -25 -49 -3 -16 -16 -49 -27 -73 -17
-34 -22 -69 -26 -166 -8 -216 33 -366 130 -477 93 -105 234 -194 368 -232 309
-87 610 -22 865 187 39 32 79 67 89 79 11 11 25 21 31 21 7 0 75 -62 151 -138
182 -181 325 -293 559 -438 58 -36 321 -162 385 -184 36 -13 70 -27 75 -30 16
-12 222 -76 325 -101 93 -23 331 -59 466 -70 154 -12 433 -7 580 11 576 70
1145 327 1568 710 34 30 95 90 137 132 42 43 83 78 92 78 9 0 38 -21 64 -47
108 -105 261 -193 418 -239 78 -23 109 -26 230 -26 165 0 245 15 372 70 268
115 410 315 414 584 1 81 -13 259 -27 327 -7 35 -51 108 -79 131 -13 10 -15 9
-15 -9 0 -13 -11 -26 -32 -37 -18 -9 -36 -21 -39 -26 -18 -27 -47 7 -89 103
-24 56 -54 117 -67 136 -29 43 -29 45 6 63 313 162 503 333 624 563 20 37 58
95 85 130 27 34 72 102 100 150 93 157 132 273 132 390 0 37 6 80 14 95 7 15
26 72 41 127 32 110 31 105 23 560 -7 321 -22 602 -37 648 -13 41 -31 50 -31
15 0 -43 -12 -68 -31 -68 -11 0 -19 5 -19 10 0 6 -11 10 -25 10 -34 0 -73 43
-85 94 -42 175 -90 298 -159 410 -36 57 -6 42 69 -36 38 -40 72 -69 75 -66 13
13 -64 115 -138 184 -66 62 -119 100 -214 153 -18 9 -28 10 -36 2 -6 -6 -19
-11 -29 -11 -27 0 -22 -16 22 -81 49 -72 130 -240 142 -294 5 -22 13 -61 19
-88 5 -26 8 -114 7 -195 -3 -114 -9 -165 -26 -227 -28 -98 -62 -204 -73 -227
-13 -26 -11 -38 6 -38 8 0 15 7 15 15 0 21 17 19 30 -5 14 -26 52 -26 69 1
l13 22 24 -27 c30 -32 35 -32 61 -3 25 27 41 79 40 132 0 22 5 50 11 62 7 12
12 29 12 37 0 23 28 19 35 -4 4 -12 3 -40 -1 -63 -4 -23 -8 -53 -10 -67 -16
-136 -80 -297 -160 -401 -97 -127 -195 -200 -545 -408 -309 -184 -456 -279
-595 -384 -143 -107 -157 -117 -171 -117 -7 0 -13 3 -13 6 0 11 64 100 90 124
41 38 72 100 74 150 3 55 15 74 78 125 38 30 48 44 44 60 -5 21 -44 186 -51
218 -16 75 -89 296 -127 387 -34 81 -109 236 -167 345 -51 97 -216 332 -308
439 -92 106 -283 298 -372 371 -110 90 -348 252 -357 242 -7 -7 46 -47 61 -47
7 0 15 -7 19 -15 3 -8 11 -15 17 -15 7 0 19 -7 28 -15 9 -8 59 -48 111 -88
163 -125 352 -303 371 -349 10 -23 10 -34 1 -47 -7 -9 -15 -22 -18 -29 -11
-23 30 -83 86 -127 70 -54 95 -66 115 -59 9 4 25 -2 37 -12 21 -19 82 -108
105 -154 7 -14 29 -52 49 -85 150 -255 272 -590 319 -883 14 -88 12 -112 -11
-112 -10 0 -14 14 -14 49 0 33 -6 56 -20 74 -11 14 -20 36 -21 49 0 12 -4 31
-8 41 -5 15 -9 12 -19 -16 -9 -24 -9 -42 -3 -60 14 -37 -3 -87 -44 -127 -23
-22 -35 -43 -35 -61 0 -26 -49 -104 -102 -160 -16 -17 -28 -38 -28 -48 0 -10
-29 -55 -65 -101 -65 -83 -69 -92 -78 -161 -7 -46 17 -97 77 -168 25 -30 48
-68 52 -84 3 -16 31 -59 62 -96 32 -38 66 -81 77 -95 19 -27 21 -27 55 -13 19
8 95 27 168 42 123 25 145 27 267 20 123 -6 135 -9 148 -29 17 -25 91 -46 163
-46 49 0 66 -18 43 -46 -10 -12 -23 -14 -54 -10 -26 4 -57 1 -84 -9 -51 -18
-214 -45 -271 -45 -50 0 -52 15 -9 77 25 36 29 47 18 54 -17 10 -39 5 -164
-38 -62 -21 -122 -35 -157 -36 -69 -2 -75 -18 -28 -67 17 -17 30 -37 30 -45 0
-24 -22 -65 -35 -65 -7 0 -24 -9 -38 -20 -23 -18 -40 -20 -170 -20 -80 0 -158
5 -174 11 -31 11 -83 57 -83 72 0 6 -29 53 -65 106 -36 53 -65 104 -65 113 0
26 -11 48 -25 48 -20 0 -95 -92 -95 -116 0 -12 -15 -41 -34 -63 -19 -23 -37
-54 -41 -71 -4 -18 -23 -42 -48 -62 -41 -33 -41 -33 -182 -39 -147 -6 -161 -3
-206 42 -29 29 -23 64 23 148 24 42 54 97 68 123 14 26 42 74 63 105 124 189
151 238 155 290 4 47 1 58 -34 113 -22 33 -56 84 -77 113 -21 28 -48 75 -61
102 -73 152 -95 204 -101 228 -10 36 -22 42 -31 15 -5 -13 -7 -160 -5 -328 2
-267 1 -311 -14 -350 -9 -25 -24 -90 -32 -145 -11 -73 -22 -114 -44 -151 -16
-28 -29 -62 -29 -74 0 -15 -30 -53 -87 -112 -110 -112 -174 -152 -318 -198
-62 -20 -84 -22 -190 -17 -128 6 -234 34 -279 75 -11 11 -32 23 -46 27 -14 4
-67 48 -117 98 -71 69 -93 97 -93 117 0 14 -13 44 -29 66 -16 21 -31 58 -34
81 -3 23 -13 57 -23 75 -16 30 -18 72 -22 480 l-4 447 25 43 c14 24 28 67 31
96 11 84 85 217 169 304 100 101 163 148 201 148 17 0 47 10 66 22 29 18 54
22 150 26 112 4 119 3 216 -31 122 -42 184 -83 287 -188 61 -62 77 -85 77
-109 0 -19 11 -42 32 -66 29 -33 33 -47 44 -138 11 -85 16 -103 35 -119 23
-19 24 -19 46 10 23 28 24 28 165 34 79 3 157 2 174 -3 36 -9 108 -99 132
-163 18 -48 89 -125 115 -125 19 0 47 52 47 87 0 35 127 190 173 210 15 7 27
19 27 27 0 12 -66 212 -103 311 -8 22 -36 85 -62 140 -309 649 -891 1127
-1580 1298 -209 52 -294 62 -555 62 -247 0 -321 -6 -520 -46 -404 -79 -822
-297 -1119 -583 -112 -108 -264 -288 -336 -396 -38 -58 -79 -118 -92 -133 -13
-16 -23 -39 -23 -51 0 -21 6 -24 63 -30 34 -4 151 -4 260 -1 195 5 198 4 235
-19 64 -40 63 -38 64 -235 0 -99 -3 -185 -7 -191 -4 -6 -25 -22 -47 -37 l-41
-25 -283 1 -284 2 -35 -55 c-45 -70 -57 -101 -49 -131 8 -32 29 -38 69 -19 26
12 57 14 141 11 131 -5 210 -27 278 -79 27 -21 55 -38 63 -38 15 0 89 -70 145
-137 24 -28 37 -56 41 -87 4 -26 14 -60 22 -76 13 -26 15 -69 12 -278 -2 -136
-9 -271 -15 -300 -14 -66 -55 -122 -165 -227 -114 -108 -140 -126 -200 -140
-29 -7 -74 -20 -100 -29 -65 -22 -285 -23 -327 -1 -16 9 -50 18 -76 22 -25 3
-60 16 -77 29 -18 13 -48 32 -67 43 -19 11 -66 54 -105 96 -38 42 -87 94 -107
117 -24 25 -38 50 -38 67 0 14 -11 49 -24 78 -27 58 -41 130 -31 162 10 32 70
63 128 67 44 2 191 18 223 25 25 4 44 -4 81 -36 31 -26 41 -43 45 -73 4 -29
17 -51 52 -86 61 -61 81 -63 51 -5 -13 23 -14 37 -5 69 6 21 14 41 19 44 15
10 101 -98 101 -127 0 -9 10 -28 23 -42 34 -41 85 -28 137 35 22 26 44 60 51
76 10 27 7 128 -7 239 -11 86 -112 161 -213 158 -86 -2 -170 -28 -211 -66 -51
-48 -85 -67 -122 -67 -26 0 -157 19 -244 36 -51 9 -67 113 -45 279 7 50 13
110 14 135 1 26 11 61 25 84 19 32 24 60 32 181 13 216 1 234 -65 95 -19 -40
-45 -159 -52 -240 -5 -57 -18 -76 -40 -58 -24 20 -14 102 42 318 27 107 58
209 75 245 5 11 25 61 44 111 19 51 52 127 74 170 62 124 106 207 124 234 9
14 26 44 39 66 132 230 473 600 687 747 31 22 66 47 77 57 11 9 27 20 35 24 8
4 42 24 75 46 119 78 299 174 363 194 12 4 22 12 22 17 0 23 -56 2 -205 -74z
m1155 -473 c35 -8 85 -15 110 -14 25 0 101 -4 170 -9 102 -7 145 -16 235 -46
142 -47 162 -63 191 -149 13 -38 18 -64 11 -57 -6 6 -24 11 -39 11 -16 0 -49
15 -75 34 -84 59 -110 69 -149 56 -19 -6 -46 -9 -62 -6 -15 4 -47 7 -72 8 -50
1 -70 12 -70 39 0 21 -31 33 -60 24 -25 -8 -25 -20 0 -38 11 -8 17 -17 13 -21
-4 -3 10 -24 31 -45 49 -50 43 -67 -34 -117 -33 -21 -60 -41 -60 -45 0 -11
-30 -39 -41 -39 -5 0 -9 23 -9 51 0 116 -52 196 -145 225 l-51 16 -52 -32
c-48 -30 -52 -34 -52 -71 0 -44 -20 -60 -51 -41 -15 9 -25 8 -53 -9 -19 -11
-41 -19 -48 -18 -28 3 -36 -2 -42 -26 -4 -14 -13 -25 -21 -25 -8 0 -22 -11
-30 -24 -16 -24 -24 -26 -140 -44 -27 -5 -60 -14 -72 -20 -28 -16 -29 -7 -3
45 11 23 38 54 60 70 22 15 52 38 65 50 14 12 43 27 66 33 43 12 58 33 42 59
-8 13 -1 25 33 58 24 24 53 43 66 44 39 1 54 6 95 32 38 24 90 43 143 51 14 2
27 4 30 4 3 1 34 -5 70 -14z m-520 -194 c0 -17 -53 -41 -83 -38 l-32 3 45 26
c41 25 70 28 70 9z m1173 -141 l21 -36 -37 -36 c-35 -36 -57 -46 -57 -28 0 5
7 14 15 21 12 10 14 24 9 56 -11 73 14 84 49 23z m150 -38 c-4 -6 -53 41 -53
50 0 4 13 -4 28 -19 15 -15 26 -29 25 -31z m-955 11 c2 -7 -3 -12 -12 -12 -9
0 -16 7 -16 16 0 17 22 14 28 -4z m1177 -3 c71 -34 108 -99 55 -99 -24 0 -129
37 -157 55 -27 18 -29 28 -7 49 21 22 56 20 109 -5z m830 -369 c21 -22 35 -43
31 -47 -3 -4 -28 14 -54 40 -28 28 -41 47 -31 47 8 0 32 -18 54 -40z m-5728
-12 c-3 -8 -6 -5 -6 6 -1 11 2 17 5 13 3 -3 4 -12 1 -19z m-207 -178 c0 -11
-4 -20 -10 -20 -5 0 -10 9 -10 20 0 11 5 20 10 20 6 0 10 -9 10 -20z m3710
-14 c19 -8 60 -23 91 -34 78 -28 151 -80 242 -173 60 -62 77 -85 77 -108 0
-18 12 -44 34 -70 30 -36 35 -49 41 -123 5 -55 16 -103 33 -142 l26 -58 0
-342 c1 -310 -1 -344 -17 -374 -10 -18 -22 -71 -28 -118 -9 -81 -19 -114 -54
-174 -8 -14 -17 -38 -20 -54 -8 -36 -152 -188 -200 -210 -18 -9 -37 -22 -44
-29 -13 -16 -57 -35 -156 -67 -62 -20 -84 -22 -190 -17 -129 5 -234 34 -278
75 -12 11 -34 24 -49 27 -14 4 -67 48 -117 97 -68 68 -91 98 -91 117 0 14 -16
48 -35 75 -22 31 -35 61 -35 80 0 17 -8 45 -19 61 -26 43 -32 129 -32 470 0
379 5 456 36 510 12 22 25 64 28 93 4 29 14 68 23 85 10 18 30 57 45 88 34 69
176 217 259 269 8 5 28 10 43 10 15 0 49 11 75 25 42 23 58 25 162 25 71 -1
128 -6 150 -14z m4687 -368 c-7 -52 2 -100 17 -95 6 2 12 13 14 25 2 12 12 28
22 35 10 7 23 28 28 47 10 34 10 35 11 6 1 -16 -3 -45 -8 -65 -5 -20 -15 -62
-21 -94 -9 -44 -23 -72 -58 -117 -94 -118 -225 -256 -266 -279 -22 -12 -78
-47 -123 -77 -46 -30 -88 -54 -95 -54 -21 0 -78 -39 -105 -71 -14 -16 -32 -29
-40 -29 -9 0 -48 -18 -87 -41 -155 -89 -367 -158 -490 -159 -28 0 -29 1 -12
19 10 11 19 37 21 58 3 28 12 45 36 65 40 33 160 80 249 97 70 14 170 55 170
71 0 6 7 10 16 10 9 0 18 9 21 20 3 10 13 22 23 25 24 8 53 52 40 60 -6 3 -10
1 -10 -5 0 -6 -8 -13 -17 -17 -10 -3 -27 -14 -38 -23 -22 -18 -102 -46 -110
-38 -5 5 110 88 121 88 3 0 17 9 31 20 14 11 33 20 41 20 9 0 23 7 33 16 10 9
25 14 34 10 29 -11 2 -74 -80 -190 -38 -52 -42 -66 -22 -66 36 0 139 119 153
178 15 62 34 82 117 123 117 59 282 158 328 197 76 66 74 103 -6 94 -37 -4
-45 -2 -45 12 0 33 83 165 104 166 5 0 6 -19 3 -42z m-8357 -14 c0 -11 11 -30
25 -42 14 -12 25 -27 25 -33 0 -5 5 -7 11 -4 6 4 8 22 4 46 -4 21 -4 48 0 59
7 21 7 21 27 3 27 -23 62 -79 76 -120 l11 -33 -53 0 c-29 0 -55 -3 -59 -6 -10
-10 12 -55 36 -75 39 -33 198 -130 315 -192 84 -44 116 -66 124 -86 6 -14 14
-35 19 -46 5 -11 13 -32 19 -47 5 -16 14 -28 20 -28 5 0 10 -6 10 -14 0 -17
87 -96 106 -96 22 0 17 13 -30 81 -81 119 -102 179 -63 179 8 0 26 -9 40 -20
14 -11 30 -20 35 -20 6 0 34 -16 63 -35 30 -19 58 -35 64 -35 10 0 45 -35 45
-45 0 -17 -84 16 -105 41 -13 15 -55 25 -55 12 0 -14 71 -78 87 -78 7 0 13 -5
13 -10 0 -6 12 -16 28 -23 15 -6 30 -17 34 -23 4 -6 34 -14 67 -18 53 -6 190
-49 245 -78 48 -24 76 -61 76 -99 0 -27 6 -41 23 -52 22 -16 22 -16 -13 -16
-48 -1 -186 24 -245 44 -81 28 -207 86 -253 116 -23 16 -54 32 -67 35 -14 3
-44 23 -67 44 -24 20 -53 40 -65 44 -11 4 -61 32 -110 62 -48 31 -104 64 -123
74 -44 23 -60 38 -195 189 -60 68 -117 139 -126 159 -27 58 -44 153 -40 217 1
17 3 17 11 5 5 -8 10 -24 10 -36z m265 -570 c0 -10 -8 -20 -17 -22 -18 -3 -26
27 -11 42 12 11 28 0 28 -20z m7933 -1 c5 -32 -22 -30 -37 3 -10 23 -9 25 11
22 15 -2 24 -11 26 -25z m-8028 -41 c0 -5 9 -19 20 -32 24 -27 26 -60 5 -60
-8 0 -15 6 -15 14 0 7 -7 19 -15 26 -17 14 -21 60 -5 60 6 0 10 -4 10 -8z
m8110 3 c0 -15 -42 -85 -50 -85 -18 0 -10 43 13 65 22 22 37 30 37 20z m-7965
-195 c10 -16 93 -49 194 -76 134 -37 165 -50 184 -84 18 -29 74 -70 97 -70 8
0 22 7 32 17 16 14 43 16 206 14 156 -1 197 -5 248 -22 75 -24 111 -58 95 -87
-6 -12 -11 -32 -11 -46 0 -21 -6 -26 -36 -32 -20 -4 -64 -4 -97 -1 -67 6 -278
67 -341 99 -25 13 -52 18 -74 16 -26 -3 -42 1 -59 16 -13 11 -36 25 -52 32
l-29 12 5 -39 c3 -21 3 -39 0 -39 -3 0 -22 11 -42 24 -41 28 -136 59 -147 48
-4 -4 -1 -39 7 -77 8 -39 15 -74 15 -78 0 -18 -65 47 -97 96 -26 42 -25 67 4
67 10 0 25 4 33 10 12 7 5 18 -36 57 -27 26 -71 65 -97 86 -26 21 -47 45 -47
52 0 17 35 20 45 5z m7835 -5 c0 -7 -21 -31 -47 -52 -27 -21 -70 -60 -97 -87
-42 -42 -46 -50 -32 -58 9 -5 25 -6 36 -3 16 5 20 2 20 -17 0 -13 -8 -36 -19
-53 -26 -43 -91 -109 -98 -101 -4 4 1 27 10 53 12 32 14 50 7 58 -6 7 -7 20
-4 30 7 16 3 17 -35 12 -24 -3 -66 -19 -93 -36 -27 -17 -51 -31 -54 -31 -8 0
-4 41 6 61 6 10 8 19 5 19 -12 0 -84 -40 -90 -50 -3 -5 -26 -10 -51 -10 -25 0
-62 -9 -82 -19 -21 -11 -92 -36 -157 -56 -97 -29 -146 -38 -254 -46 -73 -5
-138 -6 -143 -3 -6 4 1 17 16 31 15 14 29 38 33 54 8 39 42 65 122 90 57 17
88 20 226 18 88 -1 170 1 183 5 17 6 27 2 40 -14 26 -32 63 -18 126 46 29 29
66 56 82 59 93 21 215 60 263 85 64 33 81 36 81 15z m-416 -10 c-4 -8 -10 -15
-15 -15 -5 0 -9 7 -9 15 0 8 7 15 15 15 9 0 12 -6 9 -15z m-7001 -32 c15 -21
43 -51 63 -67 23 -19 32 -32 26 -38 -16 -16 -38 3 -87 75 -46 69 -48 96 -2 30z
m6967 -9 c0 -7 -60 -94 -65 -94 -2 0 -10 -3 -19 -6 -30 -11 -17 24 19 53 19
15 35 34 35 41 0 6 7 12 15 12 8 0 15 -3 15 -6z m-6285 -94 c3 -5 -1 -10 -9
-10 -9 0 -16 5 -16 10 0 6 4 10 9 10 6 0 13 -4 16 -10z m5615 2 c0 -22 -145
-120 -158 -107 -8 7 46 63 88 91 35 23 70 31 70 16z m552 -204 c-23 -23 -45
-39 -49 -35 -7 8 79 88 87 81 2 -3 -15 -23 -38 -46z m-6718 -3 c25 -25 51 -45
59 -45 14 0 37 -19 37 -32 0 -24 -40 0 -98 57 -35 36 -60 65 -54 65 7 0 32
-20 56 -45z m6098 23 c-7 -7 -12 -8 -12 -2 0 14 12 26 19 19 2 -3 -1 -11 -7
-17z m559 -87 c-12 -22 -48 -34 -58 -19 -8 14 24 38 49 38 15 0 17 -4 9 -19z
m-616 -1 c-3 -5 -10 -10 -16 -10 -5 0 -9 5 -9 10 0 6 7 10 16 10 8 0 12 -4 9
-10z m-5577 -60 c56 -20 82 -41 82 -67 0 -18 -64 -16 -115 3 -22 8 -59 18 -83
23 -58 12 -64 -6 -24 -63 48 -66 37 -72 -100 -57 -62 7 -142 22 -177 33 -40
12 -76 17 -96 14 -23 -5 -38 -2 -49 9 -25 26 -9 45 40 45 72 0 142 19 162 45
21 26 45 30 215 33 66 2 102 -3 145 -18z m-43 -120 c3 -5 2 -10 -4 -10 -5 0
-13 5 -16 10 -3 6 -2 10 4 10 5 0 13 -4 16 -10z m-457 -29 c3 -8 -1 -12 -9 -9
-7 2 -15 10 -17 17 -3 8 1 12 9 9 7 -2 15 -10 17 -17z m6792 11 c0 -13 -12
-22 -22 -16 -10 6 -1 24 13 24 5 0 9 -4 9 -8z m-532 -34 c-4 -12 -56 -46 -72
-47 -6 -1 3 13 19 29 29 30 60 41 53 18z m-6148 -50 c25 -11 49 -27 53 -34 4
-8 18 -14 31 -14 13 0 31 -9 41 -20 10 -11 28 -20 39 -20 12 0 27 -4 34 -9 11
-6 10 -10 -3 -15 -33 -12 -282 126 -284 158 -1 5 9 1 22 -8 12 -9 42 -26 67
-38z m6578 -1 c-62 -50 -176 -107 -213 -107 -15 0 -24 4 -20 10 3 6 19 10 35
10 16 0 32 5 36 11 3 6 22 17 40 25 19 8 34 18 34 23 0 5 12 12 28 15 15 4 41
18 57 31 17 13 36 24 43 25 8 0 -10 -19 -40 -43z m-347 -114 c54 -25 99 -49
99 -53 0 -4 -9 -15 -20 -25 -20 -18 -22 -18 -51 -1 -16 9 -38 15 -48 11 -12
-3 -30 4 -49 20 -16 14 -39 25 -51 25 -24 0 -30 37 -9 58 17 17 19 17 129 -35z
m-5771 11 c14 -35 14 -34 -23 -34 -21 0 -41 -8 -52 -20 -10 -11 -30 -20 -44
-20 -14 0 -39 -7 -55 -15 -33 -17 -61 -12 -70 12 -8 21 -5 24 74 57 36 16 69
32 75 37 5 5 26 9 47 9 32 0 40 -4 48 -26z m4910 -51 c7 -16 17 -84 21 -153 5
-69 10 -138 12 -155 6 -43 37 -176 48 -204 6 -13 8 -25 6 -27 -4 -4 -44 35
-61 61 -13 17 -16 18 -42 5 -16 -8 -33 -14 -39 -15 -23 -1 -35 -18 -35 -46 0
-51 -22 -28 -46 47 -23 75 -44 192 -44 252 0 48 28 132 46 139 7 3 25 29 39
58 22 48 36 60 71 64 6 0 17 -11 24 -26z m-5023 -89 c-3 -3 -12 -4 -19 -1 -8
3 -5 6 6 6 11 1 17 -2 13 -5z m5870 0 c-3 -3 -12 -4 -19 -1 -8 3 -5 6 6 6 11
1 17 -2 13 -5z m-5759 -31 c2 -8 -5 -13 -16 -13 -28 0 -52 10 -52 22 0 14 63
5 68 -9z m5692 7 c0 -5 -12 -10 -26 -10 -14 0 -23 4 -19 10 3 6 15 10 26 10
10 0 19 -4 19 -10z m-5480 -44 c0 -26 -152 -88 -170 -70 -15 15 27 48 90 72
55 20 80 19 80 -2z m-575 -17 c25 -12 58 -36 73 -53 36 -43 92 -76 181 -106
60 -20 78 -31 91 -55 17 -33 101 -80 163 -90 46 -8 90 -44 107 -87 8 -18 27
-52 43 -74 34 -49 33 -83 -3 -101 -14 -7 -42 -28 -64 -47 -30 -28 -39 -43 -41
-75 -2 -22 -6 -48 -9 -59 -7 -20 -65 -56 -107 -65 -14 -4 -38 -16 -52 -28 -24
-18 -27 -28 -27 -76 0 -40 -5 -59 -16 -68 -9 -6 -17 -25 -18 -42 -1 -16 -8
-38 -15 -47 -20 -24 0 -36 62 -36 70 0 57 -16 -26 -29 -85 -14 -217 -7 -297
16 -66 19 -200 93 -200 111 0 16 19 15 54 -3 36 -19 40 -19 32 1 -4 9 2 35 13
58 11 23 28 71 37 108 18 66 18 68 -4 130 -12 35 -25 87 -28 117 -7 51 -6 53
14 47 32 -11 33 6 2 65 -60 113 -62 120 -55 189 4 36 13 83 21 105 19 54 18
68 -6 83 -11 7 -20 23 -20 36 0 31 27 96 40 96 6 0 31 -10 55 -21z m6409 -72
c7 -40 5 -51 -9 -67 -15 -16 -16 -26 -7 -67 19 -85 22 -177 8 -205 -8 -14 -22
-50 -31 -79 -18 -52 -18 -53 5 -71 20 -16 21 -24 15 -66 -4 -26 -15 -67 -26
-91 -19 -45 -26 -131 -10 -131 16 0 48 -74 56 -128 7 -49 24 -68 40 -42 3 6
18 10 32 10 l27 0 -22 -20 c-72 -68 -201 -110 -342 -113 -110 -2 -204 9 -195
22 2 5 32 11 65 15 58 7 75 18 45 30 -12 4 -15 23 -15 85 0 127 6 120 -157
178 -27 9 -64 26 -83 38 -19 11 -54 29 -77 39 -46 20 -48 36 -4 36 19 0 31 7
38 23 14 29 2 51 -54 101 -50 44 -53 65 -18 110 14 18 25 36 25 40 0 5 9 21
20 36 15 21 40 35 89 50 90 29 141 59 161 95 13 24 32 35 106 60 92 31 140 59
172 99 27 35 83 67 112 64 21 -3 26 -10 34 -51z m-5188 -179 c-4 -13 -10 -40
-13 -60 -3 -21 -12 -43 -19 -49 -12 -10 -14 0 -14 53 0 70 3 78 33 78 15 0 18
-5 13 -22z m4454 -21 c-18 -47 -74 -152 -84 -159 -5 -4 -13 -5 -17 -2 -17 10
-90 156 -85 169 4 10 18 12 58 8 29 -3 69 -1 88 4 44 12 52 8 40 -20z m-4912
-59 c37 -69 40 -88 12 -88 -14 0 -29 19 -55 70 -42 84 -45 104 -12 89 13 -6
38 -38 55 -71z m282 58 c0 -14 -4 -28 -10 -31 -6 -4 -10 7 -10 24 0 17 5 31
10 31 6 0 10 -11 10 -24z m117 -128 c-3 -8 -6 -5 -6 6 -1 11 2 17 5 13 3 -3 4
-12 1 -19z m176 -65 c68 -85 269 -281 363 -355 574 -453 1322 -621 2014 -452
100 25 292 84 335 104 11 5 52 22 90 39 136 58 323 169 480 284 132 96 328
286 400 385 53 75 86 80 84 14 -3 -77 82 -291 142 -360 22 -25 27 -37 20 -50
-16 -30 -222 -228 -320 -307 -90 -73 -311 -225 -327 -225 -4 0 -15 -6 -23 -14
-21 -19 -279 -147 -361 -179 -107 -43 -303 -106 -351 -113 -24 -4 -52 -11 -61
-15 -9 -5 -47 -14 -85 -20 -37 -6 -93 -15 -123 -20 -347 -57 -747 -42 -1090
41 -216 52 -394 117 -591 214 -223 111 -344 189 -549 352 -101 81 -300 275
-300 292 0 7 7 15 15 18 10 4 46 -25 103 -82 106 -106 193 -180 282 -239 25
-16 49 -36 53 -42 4 -7 16 -13 26 -13 11 0 21 -7 25 -15 3 -8 14 -15 25 -15
10 0 21 -7 25 -15 3 -8 14 -15 25 -15 11 0 24 -6 28 -14 12 -22 48 -25 47 -3
-2 21 10 22 30 1 21 -20 20 -32 -1 -36 -12 -2 -14 -6 -6 -11 6 -4 18 0 26 8
25 24 69 18 105 -15 23 -21 44 -30 66 -30 20 0 40 -8 51 -20 14 -16 31 -20 78
-20 48 0 58 -3 53 -15 -4 -12 3 -15 37 -15 56 0 87 -9 87 -26 0 -8 5 -14 10
-14 6 0 10 9 10 20 0 25 11 25 41 0 26 -23 96 -25 92 -2 -2 8 13 12 51 12 47
0 58 -4 92 -35 21 -19 44 -35 51 -35 7 0 13 -7 13 -16 0 -13 7 -15 34 -11 26
4 39 1 53 -15 29 -32 93 -61 123 -54 15 2 31 1 36 -4 14 -14 66 -22 157 -25
54 -2 83 -7 95 -18 10 -9 42 -18 77 -20 33 -2 13 -4 -45 -4 -100 1 -155 -11
-137 -30 14 -13 476 -10 522 4 22 6 76 16 120 21 97 13 203 35 230 49 11 6 41
13 67 17 25 4 52 14 58 21 7 8 23 15 35 15 34 0 55 10 55 26 0 9 11 14 30 14
17 0 30 5 30 10 0 19 -54 32 -121 31 -53 -2 -68 2 -83 17 -10 12 -25 18 -37
15 -24 -7 -24 -4 6 53 20 37 23 55 18 87 -5 36 -4 40 11 34 19 -7 60 15 49 26
-9 10 -61 8 -67 -2 -3 -4 -28 -11 -55 -15 -27 -4 -62 -13 -78 -21 -15 -8 -43
-15 -61 -15 -18 0 -48 -6 -66 -14 -18 -7 -57 -17 -87 -20 -30 -4 -85 -14 -123
-23 -56 -13 -112 -15 -312 -11 -143 3 -249 9 -256 15 -7 6 -58 14 -113 17 -55
4 -106 12 -113 18 -8 7 -35 8 -72 5 -52 -6 -63 -4 -80 13 -11 11 -39 23 -62
26 -24 4 -50 12 -58 19 -8 7 -29 16 -47 20 -17 3 -37 13 -44 21 -6 8 -18 14
-25 14 -12 0 -74 27 -114 50 -8 5 -40 21 -70 35 -30 15 -62 31 -70 36 -8 5
-25 13 -38 19 -12 5 -28 14 -35 20 -6 5 -49 34 -93 64 -168 111 -320 244 -521
458 -68 73 -83 96 -83 127 0 35 17 24 73 -46z m3867 47 c0 -5 -5 -10 -11 -10
-5 0 -7 5 -4 10 3 6 8 10 11 10 2 0 4 -4 4 -10z m-1033 -230 c33 0 64 -5 71
-12 24 -24 13 -47 -30 -66 -82 -36 -86 -69 -11 -79 28 -4 42 -1 52 11 7 9 27
16 43 16 16 0 31 6 34 14 3 8 20 18 37 22 18 3 40 13 50 22 9 8 20 12 24 9 3
-4 4 -8 2 -10 -2 -1 -23 -17 -46 -35 -23 -17 -48 -32 -56 -32 -8 0 -20 -7 -27
-15 -7 -8 -22 -15 -35 -15 -12 0 -30 -9 -39 -19 -10 -11 -31 -23 -46 -26 -16
-3 -34 -13 -41 -21 -6 -8 -19 -14 -28 -14 -9 0 -26 -7 -38 -15 -11 -8 -40 -17
-64 -21 -24 -4 -55 -15 -68 -25 -27 -22 -41 -17 -41 15 0 31 33 59 112 96 62
29 68 35 74 68 4 20 13 45 22 54 13 16 13 18 0 23 -8 3 -19 5 -24 4 -54 -10
-82 23 -45 52 17 14 28 16 41 9 10 -6 45 -10 77 -10z m-337 -144 c0 -11 -19
-15 -25 -6 -3 5 1 10 9 10 9 0 16 -2 16 -4z m60 -186 c0 -5 -2 -10 -4 -10 -3
0 -8 5 -11 10 -3 6 -1 10 4 10 6 0 11 -4 11 -10z m-4063 -6 c-3 -3 -12 -4 -19
-1 -8 3 -5 6 6 6 11 1 17 -2 13 -5z m2713 -424 c0 -5 -4 -10 -10 -10 -5 0 -10
5 -10 10 0 6 5 10 10 10 6 0 10 -4 10 -10z"/>
<path d="M3976 5500 c-42 -19 -55 -35 -62 -78 -3 -15 -15 -37 -27 -50 -33 -36
-46 -188 -46 -562 l0 -325 29 -39 c17 -22 30 -49 30 -61 0 -33 29 -65 77 -86
54 -23 75 -24 139 -3 68 22 91 51 99 121 4 32 18 88 32 124 25 66 25 67 20
315 -8 342 -11 376 -42 431 -14 25 -25 59 -25 75 0 16 -5 49 -11 73 -11 42
-13 45 -72 64 -73 25 -90 25 -141 1z"/>
<path d="M3440 2330 c0 -5 7 -10 15 -10 8 0 15 5 15 10 0 6 -7 10 -15 10 -8 0
-15 -4 -15 -10z"/>
<path d="M3505 2300 c-3 -5 3 -10 15 -10 12 0 18 5 15 10 -3 6 -10 10 -15 10
-5 0 -12 -4 -15 -10z"/>
<path d="M4275 2061 c-9 -15 14 -24 43 -16 20 5 23 8 11 16 -18 11 -46 12 -54
0z"/>
<path d="M6120 7291 c0 -12 39 -25 48 -16 7 7 -17 25 -35 25 -7 0 -13 -4 -13
-9z"/>
<path d="M5975 7251 c-3 -5 2 -11 10 -15 8 -3 17 -1 20 3 3 5 -2 11 -10 15 -8
3 -17 1 -20 -3z"/>
<path d="M6030 7243 c2 -33 78 -63 87 -35 3 7 -5 12 -20 12 -13 0 -30 7 -37
15 -13 16 -30 20 -30 8z"/>
<path d="M6140 7173 c1 -9 82 -49 93 -45 4 1 10 -5 13 -13 4 -8 15 -15 26 -15
17 0 14 4 -13 23 -19 13 -42 26 -51 30 -10 3 -18 11 -18 17 0 5 -11 10 -25 10
-14 0 -25 -3 -25 -7z"/>
<path d="M8360 7169 c0 -5 5 -7 10 -4 6 3 10 8 10 11 0 2 -4 4 -10 4 -5 0 -10
-5 -10 -11z"/>
<path d="M6310 7070 c0 -5 7 -10 15 -10 8 0 15 5 15 10 0 6 -7 10 -15 10 -8 0
-15 -4 -15 -10z"/>
<path d="M6360 7040 c0 -6 7 -10 15 -10 8 0 15 2 15 4 0 2 -7 6 -15 10 -8 3
-15 1 -15 -4z"/>
<path d="M6415 7000 c3 -5 8 -10 11 -10 2 0 4 5 4 10 0 6 -5 10 -11 10 -5 0
-7 -4 -4 -10z"/>
<path d="M6450 6970 c0 -5 7 -10 16 -10 8 0 12 5 9 10 -3 6 -10 10 -16 10 -5
0 -9 -4 -9 -10z"/>
<path d="M6495 6930 c3 -5 10 -10 16 -10 5 0 9 5 9 10 0 6 -7 10 -16 10 -8 0
-12 -4 -9 -10z"/>
<path d="M6590 6860 c0 -5 5 -10 11 -10 5 0 7 5 4 10 -3 6 -8 10 -11 10 -2 0
-4 -4 -4 -10z"/>
<path d="M6660 6790 c0 -5 5 -10 10 -10 6 0 10 5 10 10 0 6 -4 10 -10 10 -5 0
-10 -4 -10 -10z"/>
<path d="M6690 6745 c0 -9 7 -18 16 -22 8 -3 20 -17 25 -30 8 -22 29 -24 29
-3 0 10 -56 70 -65 70 -3 0 -5 -7 -5 -15z"/>
<path d="M6362 6641 c-19 -11 -3 -42 44 -84 48 -43 64 -45 104 -15 21 15 30
30 30 50 0 35 -30 49 -100 47 -26 -1 -51 1 -56 4 -6 3 -16 2 -22 -2z"/>
<path d="M6563 6523 c-7 -3 -13 -10 -13 -17 0 -9 -9 -12 -26 -8 l-27 5 24 -32
c12 -17 26 -31 29 -31 3 0 28 -29 55 -65 27 -36 53 -65 57 -65 3 0 10 -9 13
-20 3 -11 11 -20 16 -20 15 0 10 36 -6 50 -8 7 -15 18 -15 26 0 7 -6 17 -13
21 -22 14 -47 61 -41 77 4 12 0 16 -16 16 -20 0 -22 4 -17 30 7 31 0 40 -20
33z"/>
<path d="M2425 6393 c-24 -31 -40 -54 -83 -124 -18 -30 -38 -61 -44 -70 -6 -9
-8 -24 -4 -34 6 -16 8 -15 29 6 13 13 39 38 59 55 27 23 38 42 47 83 6 29 16
62 22 73 17 31 -3 40 -26 11z"/>
<path d="M7000 6376 c0 -7 7 -19 15 -26 13 -11 15 -8 15 14 0 16 -5 26 -15 26
-8 0 -15 -6 -15 -14z"/>
<path d="M7040 6320 c0 -11 7 -20 15 -20 17 0 18 2 9 24 -9 23 -24 20 -24 -4z"/>
<path d="M7080 6270 c0 -5 5 -10 11 -10 5 0 7 5 4 10 -3 6 -8 10 -11 10 -2 0
-4 -4 -4 -10z"/>
<path d="M6710 6255 c0 -8 8 -22 19 -32 10 -10 21 -25 24 -33 5 -13 6 -13 6 1
1 21 -28 79 -40 79 -5 0 -9 -7 -9 -15z"/>
<path d="M2582 6038 c-11 -11 -38 -11 -257 -6 -75 2 -95 -5 -95 -34 0 -12 -9
-32 -21 -44 -11 -12 -19 -30 -17 -41 3 -15 11 -11 50 27 l47 45 118 -3 c65 -2
132 -5 148 -8 41 -6 80 24 70 54 -7 24 -25 28 -43 10z"/>
<path d="M2145 5843 c-21 -60 -44 -168 -44 -208 l0 -30 29 35 c16 19 34 51 40
70 12 43 13 180 1 180 -5 0 -16 -21 -26 -47z"/>
<path d="M5440 5499 c-49 -22 -60 -34 -60 -65 0 -12 -13 -37 -29 -57 -38 -49
-45 -128 -45 -558 l-1 -336 28 -36 c15 -20 30 -50 33 -67 8 -37 46 -71 101
-89 36 -12 48 -11 103 5 76 23 98 49 106 124 3 30 16 80 30 111 23 53 24 67
25 265 0 287 -12 428 -45 493 -14 28 -26 65 -26 83 0 18 -5 49 -10 69 -9 32
-17 39 -69 58 -70 25 -83 25 -141 0z"/>
<path d="M7138 5423 c-21 -5 -32 -32 -15 -38 22 -9 245 -12 258 -4 21 12 1 38
-35 44 -19 4 -49 3 -68 -1 -18 -4 -35 -7 -38 -7 -44 7 -88 10 -102 6z"/>
<path d="M1623 5363 c9 -9 19 -14 23 -11 10 10 -6 28 -24 28 -15 0 -15 -1 1
-17z"/>
<path d="M6326 5242 c-2 -4 -1 -14 4 -21 10 -17 31 -5 23 14 -6 16 -19 20 -27
7z"/>
<path d="M7190 5210 c0 -11 7 -20 15 -20 8 0 15 9 15 20 0 11 -7 20 -15 20 -8
0 -15 -9 -15 -20z"/>
</g>
</svg>
